<svg width="105" height="61" viewBox="0 0 105 61" fill="none" xmlns="http://www.w3.org/2000/svg">
<path opacity="0.5" fill-rule="evenodd" clip-rule="evenodd" d="M0 20.5L9.54545 10.5L19.0909 5.5L28.6364 15.5L38.1818 14.5L47.7273 9.5L57.2727 15.5L66.8182 5.5L76.3636 0.5L85.9091 5.5L95.4545 0.5L105 12.5V37.5L95.4545 25.5L85.9091 28.5L76.3636 25.5L66.8182 30.5L57.2727 38.5L47.7273 42.5L38.1818 34.5L28.6364 35.5L19.0909 45.5L9.54545 35.5L0 45.5V20.5Z" fill="#FF6633"/>
<path opacity="0.5" fill-rule="evenodd" clip-rule="evenodd" d="M0 45.5L9.54545 35.5L19.0909 45.5L28.6364 35.5L38.1818 34.5L47.7273 42.5L57.2727 38.5L66.8182 30.5L76.3636 25.5L85.9091 28.5L95.4545 25.5L105 37.5V60.5H0V45.5Z" fill="#8833FF"/>
</svg>
